<svg width="150" height="80" viewBox="0 0 150 80" fill="none" xmlns="http://www.w3.org/2000/svg">
<path d="M7.14571 23.23C-2.66649 32.4273 -1.48189 42.5197 5.31814 51C10.3142 57.2306 17.5 59.5 22.5 59.5C27.5 59.5 38.0486 57.2246 42.5857 51C55.6991 33.0091 28.8197 17.4159 28.7924 17.4L28.7911 17.3993C23.1539 14.5537 23.0763 7.02485 24.298 3.14106C24.3124 3.09519 24.2542 3.06247 24.2148 3.09012C5.87097 15.9801 22.4244 20.2945 15.3064 26.52C9.65746 31.4607 7.58047 26.4647 7.23098 23.2592C7.2265 23.218 7.1759 23.2017 7.14571 23.23Z" fill="url(#paint0_linear)"/>
<path d="M8.26158 49V32.9181H11.7637V45.8896H17.8923V49H8.26158ZM19.857 49V46.2122H21.9306V35.7059H19.857V32.9181H27.5063V35.7059H25.4327V46.2122H27.5063V49H19.857ZM37.0387 36.0285V49H33.5366V36.0285H29.1821V32.9181H41.3933V36.0285H37.0387ZM58.1812 49H54.6791V32.9181H62.3053C63.0426 32.9181 63.7108 33.041 64.3098 33.2867C64.9088 33.5325 65.4157 33.8858 65.8304 34.3466C66.2605 34.792 66.5908 35.3296 66.8212 35.9594C67.0516 36.5891 67.1668 37.288 67.1668 38.056C67.1668 39.1466 66.921 40.0989 66.4295 40.913C65.9533 41.727 65.2237 42.3184 64.2407 42.687L67.3972 49H63.5034L60.6925 43.1018H58.1812V49ZM61.8676 40.1526C62.3898 40.1526 62.7968 40.0221 63.0887 39.761C63.3959 39.4845 63.5495 39.0851 63.5495 38.5629V37.5491C63.5495 37.0269 63.3959 36.6352 63.0887 36.3741C62.7968 36.0976 62.3898 35.9594 61.8676 35.9594H58.1812V40.1526H61.8676ZM74.728 49.2765C73.8064 49.2765 72.9847 49.1306 72.2627 48.8387C71.5408 48.5315 70.9264 48.1091 70.4195 47.5715C69.928 47.0186 69.5517 46.3504 69.2906 45.567C69.0448 44.7837 68.9219 43.9082 68.9219 42.9405C68.9219 41.9882 69.0448 41.128 69.2906 40.36C69.5363 39.5766 69.8973 38.9085 70.3735 38.3555C70.865 37.8026 71.464 37.3802 72.1706 37.0883C72.8771 36.7811 73.6835 36.6275 74.5898 36.6275C75.5882 36.6275 76.4407 36.7965 77.1472 37.1344C77.8691 37.4723 78.4528 37.9254 78.8983 38.4938C79.3591 39.0621 79.6893 39.7226 79.889 40.4752C80.104 41.2125 80.2115 41.9882 80.2115 42.8022V43.816H72.4471V44.0003C72.4471 44.799 72.6621 45.4365 73.0922 45.9126C73.5223 46.3734 74.1981 46.6038 75.1197 46.6038C75.8263 46.6038 76.4023 46.4656 76.8477 46.1891C77.2931 45.8973 77.7079 45.5517 78.0919 45.1523L79.7968 47.272C79.2592 47.9018 78.5527 48.3933 77.6771 48.7466C76.817 49.0998 75.8339 49.2765 74.728 49.2765ZM74.6589 39.1389C73.9677 39.1389 73.4224 39.3693 73.0231 39.8301C72.6391 40.2755 72.4471 40.8746 72.4471 41.6272V41.8115H76.6864V41.6042C76.6864 40.8669 76.5175 40.2755 76.1795 39.8301C75.857 39.3693 75.3501 39.1389 74.6589 39.1389ZM84.9752 49L81.0124 36.904H84.3762L85.8738 41.7885L87.0028 46.1661H87.1871L88.316 41.7885L89.7676 36.904H92.9932L89.0303 49H84.9752ZM96.4972 35.6138C95.806 35.6138 95.2991 35.4602 94.9766 35.153C94.6694 34.8304 94.5158 34.4234 94.5158 33.9318V33.425C94.5158 32.9334 94.6694 32.5341 94.9766 32.2269C95.2991 31.9043 95.806 31.743 96.4972 31.743C97.1884 31.743 97.6876 31.9043 97.9948 32.2269C98.3174 32.5341 98.4787 32.9334 98.4787 33.425V33.9318C98.4787 34.4234 98.3174 34.8304 97.9948 35.153C97.6876 35.4602 97.1884 35.6138 96.4972 35.6138ZM94.7923 36.904H98.2022V49H94.7923V36.904ZM106.431 49.2765C105.509 49.2765 104.687 49.1306 103.965 48.8387C103.243 48.5315 102.629 48.1091 102.122 47.5715C101.631 47.0186 101.254 46.3504 100.993 45.567C100.747 44.7837 100.624 43.9082 100.624 42.9405C100.624 41.9882 100.747 41.128 100.993 40.36C101.239 39.5766 101.6 38.9085 102.076 38.3555C102.567 37.8026 103.167 37.3802 103.873 37.0883C104.58 36.7811 105.386 36.6275 106.292 36.6275C107.291 36.6275 108.143 36.7965 108.85 37.1344C109.572 37.4723 110.155 37.9254 110.601 38.4938C111.062 39.0621 111.392 39.7226 111.591 40.4752C111.807 41.2125 111.914 41.9882 111.914 42.8022V43.816H104.15V44.0003C104.15 44.799 104.365 45.4365 104.795 45.9126C105.225 46.3734 105.901 46.6038 106.822 46.6038C107.529 46.6038 108.105 46.4656 108.55 46.1891C108.996 45.8973 109.41 45.5517 109.794 45.1523L111.499 47.272C110.962 47.9018 110.255 48.3933 109.38 48.7466C108.519 49.0998 107.536 49.2765 106.431 49.2765ZM106.361 39.1389C105.67 39.1389 105.125 39.3693 104.726 39.8301C104.342 40.2755 104.15 40.8746 104.15 41.6272V41.8115H108.389V41.6042C108.389 40.8669 108.22 40.2755 107.882 39.8301C107.559 39.3693 107.053 39.1389 106.361 39.1389ZM113.058 36.904H116.352L117.528 41.7885L118.357 45.4749H118.449L119.417 41.7885L120.799 36.904H123.91L125.315 41.7885L126.306 45.4749H126.398L127.227 41.7885L128.402 36.904H131.559L128.218 49H124.647L123.172 43.8851L122.32 40.7517H122.251L121.421 43.8851L119.947 49H116.445L113.058 36.904ZM137.593 49.2765C136.426 49.2765 135.443 49.0922 134.644 48.7235C133.846 48.3395 133.131 47.8019 132.502 47.1107L134.506 45.0832C134.936 45.5594 135.412 45.9357 135.934 46.2122C136.457 46.4886 137.048 46.6269 137.709 46.6269C138.384 46.6269 138.853 46.527 139.114 46.3274C139.375 46.1123 139.506 45.8282 139.506 45.4749C139.506 44.9066 139.099 44.5686 138.285 44.4611L136.971 44.2998C134.253 43.9619 132.893 42.7178 132.893 40.5674C132.893 39.9837 133.001 39.4538 133.216 38.9776C133.446 38.4861 133.761 38.0714 134.16 37.7334C134.575 37.3802 135.067 37.1114 135.635 36.927C136.219 36.7274 136.871 36.6275 137.593 36.6275C138.223 36.6275 138.776 36.6736 139.252 36.7658C139.744 36.8426 140.174 36.9654 140.542 37.1344C140.926 37.288 141.272 37.4877 141.579 37.7334C141.902 37.9638 142.217 38.225 142.524 38.5168L140.566 40.5213C140.182 40.1373 139.744 39.8378 139.252 39.6227C138.776 39.3923 138.285 39.2771 137.778 39.2771C137.194 39.2771 136.779 39.3693 136.534 39.5536C136.288 39.7379 136.165 39.9837 136.165 40.2909C136.165 40.6134 136.249 40.8669 136.418 41.0512C136.603 41.2202 136.941 41.343 137.432 41.4198L138.791 41.6042C141.449 41.9574 142.777 43.1709 142.777 45.2445C142.777 45.8282 142.654 46.3658 142.409 46.8573C142.163 47.3488 141.81 47.7789 141.349 48.1475C140.903 48.5008 140.358 48.7773 139.713 48.977C139.083 49.1766 138.377 49.2765 137.593 49.2765Z" fill="#FBFBFB"/>
<defs>
<linearGradient id="paint0_linear" x1="23.2058" y1="3" x2="0.872451" y2="50.8444" gradientUnits="userSpaceOnUse">
<stop stop-color="#FA9F30"/>
<stop offset="1" stop-color="#E44E4E"/>
</linearGradient>
</defs>
</svg>
