<svg viewBox="0 0 143 57" fill="none" xmlns="http://www.w3.org/2000/svg">
<path d="M7.14571 20.2301C-2.66649 29.4274 -1.48189 39.5198 5.31814 48.0001C10.3142 54.2307 17.5 56.5001 22.5 56.5001C27.5 56.5001 38.0486 54.2247 42.5857 48.0001C55.6991 30.0092 28.8197 14.416 28.7924 14.4001L28.7911 14.3994C23.1539 11.5538 23.0763 4.02497 24.298 0.141177C24.3124 0.0953068 24.2542 0.0625867 24.2148 0.0902367C5.87097 12.9802 22.4244 17.2946 15.3064 23.5201C9.65746 28.4608 7.58047 23.4648 7.23098 20.2593C7.2265 20.2181 7.1759 20.2018 7.14571 20.2301Z" fill="url(#paint0_linear_107_81)"/>
<path d="M8.26157 45.9999V29.918H11.7637V42.8895H17.8923V45.9999H8.26157ZM19.857 45.9999V43.2121H21.9306V32.7058H19.857V29.918H27.5063V32.7058H25.4327V43.2121H27.5063V45.9999H19.857ZM37.0387 33.0284V45.9999H33.5366V33.0284H29.1821V29.918H41.3933V33.0284H37.0387ZM58.1812 45.9999H54.6791V29.918H62.3053C63.0426 29.918 63.7108 30.0409 64.3098 30.2866C64.9088 30.5324 65.4157 30.8857 65.8304 31.3465C66.2605 31.7919 66.5908 32.3295 66.8212 32.9593C67.0516 33.589 67.1668 34.2879 67.1668 35.0559C67.1668 36.1465 66.921 37.0988 66.4295 37.9129C65.9533 38.7269 65.2237 39.3183 64.2407 39.6869L67.3972 45.9999H63.5034L60.6925 40.1017H58.1812V45.9999ZM61.8676 37.1525C62.3898 37.1525 62.7968 37.022 63.0887 36.7609C63.3959 36.4844 63.5495 36.085 63.5495 35.5628V34.549C63.5495 34.0268 63.3959 33.6351 63.0887 33.374C62.7968 33.0975 62.3898 32.9593 61.8676 32.9593H58.1812V37.1525H61.8676ZM74.728 46.2764C73.8064 46.2764 72.9847 46.1305 72.2627 45.8386C71.5408 45.5314 70.9264 45.109 70.4195 44.5714C69.928 44.0185 69.5517 43.3503 69.2906 42.5669C69.0448 41.7836 68.9219 40.9081 68.9219 39.9404C68.9219 38.9881 69.0448 38.1279 69.2906 37.3599C69.5363 36.5765 69.8973 35.9084 70.3735 35.3554C70.865 34.8025 71.464 34.3801 72.1706 34.0882C72.8771 33.781 73.6835 33.6274 74.5898 33.6274C75.5882 33.6274 76.4407 33.7964 77.1472 34.1343C77.8691 34.4722 78.4528 34.9253 78.8983 35.4937C79.3591 36.062 79.6893 36.7225 79.889 37.4751C80.104 38.2124 80.2115 38.9881 80.2115 39.8021V40.8159H72.4471V41.0002C72.4471 41.7989 72.6621 42.4364 73.0922 42.9125C73.5223 43.3733 74.1981 43.6037 75.1197 43.6037C75.8263 43.6037 76.4023 43.4655 76.8477 43.189C77.2931 42.8972 77.7079 42.5516 78.0919 42.1522L79.7968 44.2719C79.2592 44.9017 78.5527 45.3932 77.6771 45.7465C76.817 46.0997 75.8339 46.2764 74.728 46.2764ZM74.6589 36.1388C73.9677 36.1388 73.4224 36.3692 73.0231 36.83C72.6391 37.2754 72.4471 37.8745 72.4471 38.6271V38.8114H76.6864V38.6041C76.6864 37.8668 76.5175 37.2754 76.1795 36.83C75.857 36.3692 75.3501 36.1388 74.6589 36.1388ZM84.9752 45.9999L81.0124 33.9039H84.3762L85.8738 38.7884L87.0028 43.166H87.1871L88.316 38.7884L89.7676 33.9039H92.9932L89.0303 45.9999H84.9752ZM96.4972 32.6137C95.806 32.6137 95.2991 32.4601 94.9766 32.1529C94.6694 31.8303 94.5158 31.4233 94.5158 30.9317V30.4249C94.5158 29.9333 94.6694 29.534 94.9766 29.2268C95.2991 28.9042 95.806 28.7429 96.4972 28.7429C97.1884 28.7429 97.6876 28.9042 97.9948 29.2268C98.3174 29.534 98.4787 29.9333 98.4787 30.4249V30.9317C98.4787 31.4233 98.3174 31.8303 97.9948 32.1529C97.6876 32.4601 97.1884 32.6137 96.4972 32.6137ZM94.7923 33.9039H98.2022V45.9999H94.7923V33.9039ZM106.431 46.2764C105.509 46.2764 104.687 46.1305 103.965 45.8386C103.243 45.5314 102.629 45.109 102.122 44.5714C101.631 44.0185 101.254 43.3503 100.993 42.5669C100.747 41.7836 100.624 40.9081 100.624 39.9404C100.624 38.9881 100.747 38.1279 100.993 37.3599C101.239 36.5765 101.6 35.9084 102.076 35.3554C102.567 34.8025 103.167 34.3801 103.873 34.0882C104.58 33.781 105.386 33.6274 106.292 33.6274C107.291 33.6274 108.143 33.7964 108.85 34.1343C109.572 34.4722 110.155 34.9253 110.601 35.4937C111.062 36.062 111.392 36.7225 111.591 37.4751C111.807 38.2124 111.914 38.9881 111.914 39.8021V40.8159H104.15V41.0002C104.15 41.7989 104.365 42.4364 104.795 42.9125C105.225 43.3733 105.901 43.6037 106.822 43.6037C107.529 43.6037 108.105 43.4655 108.55 43.189C108.996 42.8972 109.41 42.5516 109.794 42.1522L111.499 44.2719C110.962 44.9017 110.255 45.3932 109.38 45.7465C108.519 46.0997 107.536 46.2764 106.431 46.2764ZM106.361 36.1388C105.67 36.1388 105.125 36.3692 104.726 36.83C104.342 37.2754 104.15 37.8745 104.15 38.6271V38.8114H108.389V38.6041C108.389 37.8668 108.22 37.2754 107.882 36.83C107.559 36.3692 107.053 36.1388 106.361 36.1388ZM113.058 33.9039H116.352L117.528 38.7884L118.357 42.4748H118.449L119.417 38.7884L120.799 33.9039H123.91L125.315 38.7884L126.306 42.4748H126.398L127.227 38.7884L128.402 33.9039H131.559L128.218 45.9999H124.647L123.172 40.885L122.32 37.7516H122.251L121.421 40.885L119.947 45.9999H116.445L113.058 33.9039ZM137.593 46.2764C136.426 46.2764 135.443 46.0921 134.644 45.7234C133.846 45.3394 133.131 44.8018 132.502 44.1106L134.506 42.0831C134.936 42.5593 135.412 42.9356 135.934 43.2121C136.457 43.4885 137.048 43.6268 137.709 43.6268C138.384 43.6268 138.853 43.5269 139.114 43.3273C139.375 43.1122 139.506 42.8281 139.506 42.4748C139.506 41.9065 139.099 41.5685 138.285 41.461L136.971 41.2997C134.253 40.9618 132.893 39.7177 132.893 37.5673C132.893 36.9836 133.001 36.4537 133.216 35.9775C133.446 35.486 133.761 35.0713 134.16 34.7333C134.575 34.3801 135.067 34.1113 135.635 33.9269C136.219 33.7273 136.871 33.6274 137.593 33.6274C138.223 33.6274 138.776 33.6735 139.252 33.7657C139.744 33.8425 140.174 33.9653 140.542 34.1343C140.926 34.2879 141.272 34.4876 141.579 34.7333C141.902 34.9637 142.217 35.2249 142.524 35.5167L140.566 37.5212C140.182 37.1372 139.744 36.8377 139.252 36.6226C138.776 36.3922 138.285 36.277 137.778 36.277C137.194 36.277 136.779 36.3692 136.534 36.5535C136.288 36.7378 136.165 36.9836 136.165 37.2908C136.165 37.6133 136.249 37.8668 136.418 38.0511C136.603 38.2201 136.941 38.3429 137.432 38.4197L138.791 38.6041C141.449 38.9573 142.777 40.1708 142.777 42.2444C142.777 42.8281 142.654 43.3657 142.409 43.8572C142.163 44.3487 141.81 44.7788 141.349 45.1474C140.903 45.5007 140.358 45.7772 139.713 45.9769C139.083 46.1765 138.377 46.2764 137.593 46.2764Z" fill="#FBFBFB"/>
<defs>
<linearGradient id="paint0_linear_107_81" x1="23.2058" y1="0.000116783" x2="0.87245" y2="47.8445" gradientUnits="userSpaceOnUse">
<stop stop-color="#FA9F30"/>
<stop offset="1" stop-color="#E44E4E"/>
</linearGradient>
</defs>
</svg>
